<?xml version="1.0" encoding="UTF-8"?>
<svg width="80" height="80" viewBox="0 0 40 40" fill="none" xmlns="http://www.w3.org/2000/svg">
    <!-- Gradient definition -->
    <defs>
        <linearGradient id="grad" x1="0%" y1="0%" x2="100%" y2="100%">
            <stop offset="0%" style="stop-color:#4A90E2"/>
            <stop offset="100%" style="stop-color:#2ECC71"/>
        </linearGradient>
    </defs>
    
    <!-- Background rounded square -->
    <rect x="2" y="2" width="36" height="36" rx="8" fill="url(#grad)"/>
    
    <!-- Left triangle brace -->
    <path d="M8 20L14 14" stroke="white" stroke-width="3" stroke-linecap="round"/>
    <path d="M8 20L14 26" stroke="white" stroke-width="3" stroke-linecap="round"/>
    
    <!-- Right triangle brace -->
    <path d="M32 20L26 14" stroke="white" stroke-width="3" stroke-linecap="round"/>
    <path d="M32 20L26 26" stroke="white" stroke-width="3" stroke-linecap="round"/>
    
    <!-- Gradle Elephant (imported from gradle-svgrepo-com.svg) -->
    <g transform="translate(13, 13) scale(0.06)">
        <path d="M242.087 11.895C226.62-3.578 201.674-4.01 185.681 10.92C184.914 11.643 184.467 12.643 184.44 13.698C184.445 14.748 184.859 15.755 185.593 16.507L190.648 21.739C192.011 23.096 194.164 23.247 195.703 22.094C199.713 19.068 204.603 17.437 209.627 17.453C219.053 17.411 227.57 23.068 231.186 31.773C234.803 40.478 232.803 50.505 226.123 57.155C193.9 89.378 150.886-0.906 53.271 45.537C49.914 47.106 47.365 50.008 46.242 53.539C45.119 57.071 45.524 60.912 47.358 64.132L64.091 93.073C67.724 99.339 75.709 101.536 82.035 98.01L82.449 97.774L82.124 98.01L89.544 93.842C97.814 88.707 105.627 82.872 112.899 76.4C114.438 75.08 116.71 75.08 118.249 76.4C119.158 77.113 119.691 78.202 119.698 79.356C119.719 80.479 119.256 81.556 118.427 82.313C110.768 89.111 102.528 95.224 93.801 100.582L93.565 100.582L86.144 104.721C83.008 106.499 79.462 107.426 75.857 107.411C68.279 107.412 61.27 103.395 57.439 96.857L41.623 69.512C11.233 90.975-7.214 132.332 2.689 184.806C3.052 186.613 4.63 187.92 6.473 187.94H24.507C26.446 187.94 28.081 186.494 28.32 184.569C29.983 171.369 41.208 161.469 54.513 161.469C67.817 161.469 79.042 171.369 80.705 184.569C80.957 186.499 82.602 187.94 84.548 187.94H102.108C104.048 187.94 105.683 186.494 105.922 184.569C107.638 171.405 118.853 161.557 132.129 161.557C145.405 161.557 156.62 171.405 158.336 184.569C158.575 186.494 160.21 187.94 162.15 187.94H179.503C181.603 187.94 183.314 186.255 183.346 184.156C183.76 159.707 190.352 131.623 209.154 117.551C274.28 68.832 257.164 27.06 242.087 11.895ZM175.66 85.594L163.243 79.356C163.23 75.672 165.795 72.479 169.397 71.7C172.998 70.92 176.654 72.765 178.166 76.126C179.677 79.486 178.632 83.446 175.66 85.624V85.594Z" fill="#42509A" fill-rule="nonzero"/>
    </g>
</svg>